<svg id="Layer_1" data-name="Layer 1" xmlns="http://www.w3.org/2000/svg" viewBox="0 0 145 68"><defs>
<style>.cls-1{fill:#333;}.cls-2{fill:#E7E4DA;}.cls-3{fill:#b6bec1;}</style>
</defs>
<title>bg_social</title>
<rect class="cls-1" x="76.28" width="30.5" height="30.5"/>
<g id="_534HK9" data-name="534HK9">
<path class="cls-2" d="M101.83,9a10.05,10.05,0,0,1-1.77,1.85,0.68,0.68,0,0,0-.23.61,12.36,12.36,0,0,1-1.14,5.16,11.47,11.47,0,0,1-9.54,7,11.81,11.81,0,0,1-7.4-1.46l-0.35-.22a1.55,1.55,0,0,1-.17-0.2,8.87,8.87,0,0,0,6-1.63A1.1,1.1,0,0,0,86.72,20a4.32,4.32,0,0,1-3.07-2.4C83.41,17.09,83.47,17,84,17H84.8l0.14,0a1.19,1.19,0,0,0-.45-0.23A4.31,4.31,0,0,1,82,13.29c-0.07-.49,0-0.55.48-0.38a5.28,5.28,0,0,0,1.11.29C83.63,13.06,83.5,13,83.45,13a4.35,4.35,0,0,1-1.11-4.91c0.19-.48.25-0.49,0.61-0.13a13.09,13.09,0,0,0,4.37,3.13,12.56,12.56,0,0,0,3.27.85c0.62,0.07.68,0,.64-0.59a4.25,4.25,0,0,1,3-4.34,4.06,4.06,0,0,1,3.86.71,1.18,1.18,0,0,0,1.34.22l1.49-.61c0.11,0,.24-0.14.33,0a0.29,0.29,0,0,1-.06.3A4.78,4.78,0,0,1,100,9.13a0.19,0.19,0,0,0-.1.22,10.1,10.1,0,0,0,1.88-.51V9Z"/></g>
<rect class="cls-1" width="30.5" height="30.5"/>
<path class="cls-2" d="M20.44,8.82c-0.75,0-1.45,0-2.15,0-1.34,0-1.78.49-1.85,1.82,0,0.52,0,1,0,1.56,0,0.2,0,.39.06,0.75h3.82l-0.56,3.52h-3.4v9.27H13V16.54H9.68V13h3.24c0-1.06,0-2,0-2.93,0-3.29,1.75-5.05,5-5a7,7,0,0,1,2.52.19V8.82Z"/>
<rect class="cls-1" x="38.26" width="30.5" height="30.5"/>
<path class="cls-2" d="M60.12,17.32a2.28,2.28,0,0,0-4.55,0v8.2H51.18c0-4.59,0-9.11,0-13.74h4.06v1.48a6,6,0,0,1,6-1.89,4,4,0,0,1,3.28,4c0.15,3.32,0,6.66,0,10.08H60.12"/>
<path class="cls-2" d="M48.52,11.76V25.53H44.24V11.76h4.28Z"/>
<path class="cls-2" d="M46.38,10.06a2.57,2.57,0,0,1-2.7-2.65,2.68,2.68,0,1,1,5.36,0A2.58,2.58,0,0,1,46.38,10.06Z"/>
<rect class="cls-3" x="76.28" y="37.49" width="30.5" height="30.5"/>
<g id="_534HK9-2" data-name="534HK9">
<path class="cls-2" d="M101.83,46.51a10.05,10.05,0,0,1-1.77,1.85,0.68,0.68,0,0,0-.23.61,12.36,12.36,0,0,1-1.14,5.16,11.47,11.47,0,0,1-9.54,7,11.81,11.81,0,0,1-7.4-1.46l-0.35-.22a1.55,1.55,0,0,1-.17-0.2,8.87,8.87,0,0,0,6-1.63,1.1,1.1,0,0,0-.47-0.14,4.32,4.32,0,0,1-3.07-2.4c-0.24-.47-0.18-0.55.33-0.55H84.8l0.14,0a1.19,1.19,0,0,0-.45-0.23A4.31,4.31,0,0,1,82,50.78c-0.07-.49,0-0.55.48-0.38a5.28,5.28,0,0,0,1.11.29c0.06-.14-0.07-0.16-0.12-0.21a4.35,4.35,0,0,1-1.11-4.91c0.19-.48.25-0.49,0.61-0.13a13.09,13.09,0,0,0,4.37,3.13,12.56,12.56,0,0,0,3.27.85c0.62,0.07.68,0,.64-0.59a4.25,4.25,0,0,1,3-4.34,4.06,4.06,0,0,1,3.86.71,1.18,1.18,0,0,0,1.34.22l1.49-.61c0.11,0,.24-0.14.33,0a0.29,0.29,0,0,1-.06.3A4.78,4.78,0,0,1,100,46.62a0.19,0.19,0,0,0-.1.22,10.1,10.1,0,0,0,1.88-.51v0.18Z"/>
</g>
<rect class="cls-3" x="0.02" y="37.48" width="30.5" height="30.5"/>
<path class="cls-2" d="M20.46,46.3c-0.75,0-1.45,0-2.15,0-1.34,0-1.78.49-1.85,1.82,0,0.52,0,1,0,1.56,0,0.2,0,.39.06,0.75h3.82l-0.56,3.52h-3.4v9.27H13V54H9.7V50.51h3.24c0-1.06,0-2,0-2.93,0-3.29,1.75-5.05,5-5a7,7,0,0,1,2.52.19V46.3Z"/>
<rect class="cls-3" x="38.27" y="37.49" width="30.5" height="30.5"/>
<path class="cls-2" d="M60.13,54.81a2.28,2.28,0,0,0-4.55,0V63H51.19c0-4.59,0-9.11,0-13.74h4.06v1.48a6,6,0,0,1,6-1.89,4,4,0,0,1,3.28,4c0.15,3.32,0,6.66,0,10.08H60.13"/>
<path class="cls-2" d="M48.53,49.24V63H44.25V49.24h4.28Z"/>
<path class="cls-2" d="M46.39,47.55a2.57,2.57,0,0,1-2.7-2.65A2.68,2.68,0,1,1,46.39,47.55Z"/>
<rect class="cls-1" x="114.5" width="30.5" height="30.5"/>
<g id="daWV9b">
<path class="cls-2" d="M139.89,20.29a2.7,2.7,0,0,1-2.41,2.07,118.45,118.45,0,0,1-15.43,0,2.66,2.66,0,0,1-2.47-2.17c-0.14-.62-0.16-9.19,0-9.85A2.74,2.74,0,0,1,122,8.23a85.76,85.76,0,0,1,15.43,0,2.64,2.64,0,0,1,2.47,2.17C140.05,11,140.07,19.65,139.89,20.29Zm-12.79-5.23c0,1,0,2,0,2.93,0,0.37.09,0.43,0.43,0.25,1.87-1,3.74-1.95,5.62-2.92a0.35,0.35,0,0,0,.3-0.24,0.36,0.36,0,0,0-.28-0.21c-1.87-1-3.74-1.95-5.61-2.93-0.37-.2-0.46-0.08-0.46.29C127.11,13.17,127.11,14.12,127.11,15.06Z"/>
</g>
<rect class="cls-3" x="114.5" y="37.5" width="30.5" height="30.5"/>
<g id="daWV9b-2" data-name="daWV9b">
<path class="cls-2" d="M140,58a2.66,2.66,0,0,1-2.37,2,116.51,116.51,0,0,1-15.17,0A2.61,2.61,0,0,1,120,57.87c-0.14-.61-0.16-9,0-9.69a2.69,2.69,0,0,1,2.38-2.08,84.35,84.35,0,0,1,15.17,0A2.6,2.6,0,0,1,140,48.22C140.13,48.83,140.15,57.32,140,58ZM127.4,52.82c0,1,0,1.92,0,2.88,0,0.36.09,0.42,0.42,0.25,1.84-1,3.68-1.91,5.52-2.87a0.34,0.34,0,0,0,.3-0.24,0.35,0.35,0,0,0-.28-0.21c-1.84-1-3.68-1.92-5.52-2.88-0.36-.19-0.45-0.08-0.45.28C127.41,51,127.4,51.89,127.4,52.82Z"/>
</g>
</svg>